PathFileType	4	(X/Y/Z)	C:\Data\Karen\RERC_Shoulder\RERC1A_4\RERC1A4_1.trc
DataRate	CameraRate	NumFrames	NumMarkers	Units	OrigDataRate	OrigDataStartFrame	OrigNumFrames
120.00	120.00	       16	11	mm	120.00	1	       107
Frame#	Time	xyphoid process (ribcage)			T8 (posterior)			sternal notch (ribcage)			C7 (posterior)			Acromion process			Glenohumeral cntr of rot. (post)			Medial epicondyle			lateral epicondyle			ulnar styloid			radial styloid			2nd metacarpal head			
		X1	Y1	Z1	X2	Y2	Z2	X3	Y3	Z3	X4	Y4	Z4	X5	Y5	Z5	X6	Y6	Z6	X7	Y7	Z7	X8	Y8	Z8	X9	Y9	Z9	X10	Y10	Z10	X11	Y11	Z11	

1	0.000	1115.68225	230.73122	831.21063	1426.10339	224.13402	799.70264	1191.18433	223.82397	1052.23755	1401.98010	212.80542	1046.37769	1291.18408	370.63657	1118.00623	1398.20325	400.85486	1031.57520	1306.64990	467.04410	772.37543	1284.45422	554.98425	812.37030	1033.38599	561.01202	823.56964	1024.25098	464.50873	815.23932	950.68573	513.51666	867.97253	
2	0.008	1115.92847	231.15271	831.27679	1426.10339	224.13402	799.70264	1191.18433	223.82397	1052.23755	1401.97449	212.86787	1046.22522	1291.25085	370.61826	1117.99622	1398.20325	400.85486	1031.57520	1306.69873	467.00720	772.25433	1284.50073	554.94360	812.40277	1033.25854	561.12842	823.57379	1024.19373	464.36716	815.19092	950.40625	513.56836	868.02295	
3	0.017	1115.92847	231.15271	831.27679	1426.10339	224.13402	799.70264	1191.18433	223.82397	1052.23755	1402.07263	212.80331	1046.22961	1291.41992	370.60687	1118.02661	1398.02075	400.77768	1031.44519	1306.69873	467.00720	772.25433	1284.45422	554.98425	812.37030	1033.25854	561.12842	823.57379	1024.19373	464.36716	815.19092	950.40625	513.56836	868.02295	
4	0.025	1116.67407	230.96098	831.13611	1426.10339	224.13402	799.70264	1191.18433	223.82397	1052.23755	1402.07263	212.80331	1046.22961	1291.41992	370.60687	1118.02661	1398.01428	400.80923	1031.34631	1306.64990	467.04410	772.37543	1284.45422	554.98425	812.37030	1033.25854	561.12842	823.57379	1024.25098	464.50873	815.23932	950.38208	513.50757	868.12891	
5	0.033	1116.67407	230.96098	831.13611	1426.14661	223.99832	799.60773	1191.18433	223.82397	1052.23755	1402.07263	212.80331	1046.22961	1291.38330	370.45798	1118.04724	1398.07190	400.67026	1031.37927	1306.69873	467.00720	772.25433	1284.50073	554.94360	812.40277	1033.07605	561.19562	823.65143	1024.19373	464.36716	815.19092	950.38208	513.50757	868.12891	
6	0.042	1115.92847	231.15271	831.27679	1426.14661	223.99832	799.60773	1191.36987	223.67267	1052.44531	1402.07263	212.80331	1046.22961	1291.41992	370.60687	1118.02661	1398.25439	400.74744	1031.50928	1306.69873	467.00720	772.25433	1284.50232	555.09143	812.26587	1032.91699	561.19153	823.76416	1024.46240	464.66046	815.41815	950.38208	513.50757	868.12891	
7	0.050	1116.67407	230.96098	831.13611	1426.18982	223.86264	799.51282	1191.66748	223.34384	1052.29321	1402.16406	212.75969	1046.20593	1291.51819	370.50742	1118.08423	1399.01892	400.99335	1031.72046	1307.20068	467.04663	772.47577	1284.45422	554.98425	812.37030	1033.24951	561.27808	823.88556	1024.46240	464.66046	815.41815	950.32806	513.53729	868.33594	
8	0.058	1116.67407	230.96098	831.13611	1426.10339	224.13402	799.70264	1191.96497	223.01495	1052.14111	1402.16406	212.75969	1046.20593	1291.41992	370.60687	1118.02661	1399.01892	400.99335	1031.72046	1306.69873	467.00720	772.25433	1284.50232	555.09143	812.26587	1033.29871	561.41321	823.83478	1024.46240	464.66046	815.41815	950.32806	513.53729	868.33594	
9	0.067	1116.67407	230.96098	831.13611	1426.10339	224.13402	799.70264	1191.96497	223.01495	1052.14111	1402.17737	212.74922	1046.08984	1291.75403	370.59753	1118.00293	1398.23682	400.69443	1031.30066	1306.69873	467.00720	772.25433	1284.32385	555.22217	812.29028	1033.35437	561.13660	823.91498	1024.39319	464.75809	815.54700	950.32806	513.53729	868.33594	
10	0.075	1116.67407	230.96098	831.13611	1426.21313	224.10207	799.66187	1192.63953	223.06390	1052.30371	1402.17273	212.77740	1045.97913	1291.62256	370.74957	1117.95532	1398.23682	400.69443	1031.30066	1306.64990	467.04410	772.37543	1284.78918	555.22614	812.43610	1033.14319	561.59094	823.81421	1024.46240	464.66046	815.41815	950.41858	513.48993	868.21082	
11	0.083	1116.67407	230.96098	831.13611	1426.29956	223.83069	799.47205	1192.63953	223.06390	1052.30371	1402.29773	212.92323	1045.75806	1291.48792	370.68219	1117.91931	1398.28943	400.58374	1031.23267	1306.64990	467.04410	772.37543	1284.60486	555.35815	812.46814	1033.47510	561.77710	823.72687	1024.70703	464.78824	815.55103	950.32806	513.53729	868.33594	
12	0.092	1117.12720	230.86147	831.18774	1426.29956	223.83069	799.47205	1192.63953	223.06390	1052.30371	1402.19470	213.06293	1045.72424	1291.53052	370.67477	1117.84863	1398.28943	400.58374	1031.23267	1306.73804	467.08890	772.21771	1284.60486	555.35815	812.46814	1034.04150	561.88531	823.62531	1024.92249	465.28879	815.54858	950.41858	513.48993	868.21082	
13	0.100	1117.12720	230.86147	831.18774	1426.29956	223.83069	799.47205	1192.63953	223.06390	1052.30371	1402.29773	212.92323	1045.75806	1291.70020	370.73441	1117.88599	1398.42590	400.71188	1031.20984	1306.73804	467.08890	772.21771	1285.05139	555.21997	812.37262	1034.56372	562.06348	823.56580	1024.58557	465.08316	815.34888	950.46600	513.56177	868.14581	
14	0.108	1117.12720	230.86147	831.18774	1426.29956	223.83069	799.47205	1192.63953	223.06390	1052.30371	1402.47388	213.11256	1045.69934	1291.68579	370.60614	1117.89575	1398.28943	400.58374	1031.23267	1307.03003	467.44788	772.22144	1284.86719	555.35199	812.40472	1035.13757	562.49512	823.62128	1022.84998	463.93375	815.03375	950.46600	513.56177	868.14581	
15	0.117	1117.12720	230.86147	831.18774	1426.29956	223.83069	799.47205	1192.63953	223.06390	1052.30371	1402.47388	213.11256	1045.69934	1291.69202	370.56348	1117.84741	1398.51160	400.67065	1031.18384	1307.03003	467.44788	772.22144	1284.86719	555.35199	812.40472	1035.07959	562.53760	823.59082	1022.99353	463.81531	814.88593	951.54639	514.46472	867.94952	
16	0.125	1116.88086	230.43993	831.12152	1426.29956	223.83069	799.47205	1192.63953	223.06390	1052.30371	1402.54749	213.23386	1045.60535	1291.92383	370.52893	1117.84570	1398.51160	400.67065	1031.18384	1307.93188	467.74872	772.15955	1284.86719	555.35199	812.40472	1035.07959	562.53760	823.59082	1022.88110	463.99097	814.86865	951.62714	514.51044	867.88916	
